<svg width="16.000000" height="16.000000" viewBox="0 0 16 16" fill="none" xmlns="http://www.w3.org/2000/svg" xmlns:xlink="http://www.w3.org/1999/xlink">
	<desc>
			Created with Pixso.
	</desc>
	<defs/>
	<g opacity="0.700000">
		<path id="Subtract" d="M8 0C3.58167 0 0 3.58179 0 8C0 12.4182 3.58167 16 8 16C12.4183 16 16 12.4182 16 8C16 3.58179 12.4183 0 8 0ZM4 5.75C4 5.3374 4.35999 5 4.80005 5L11.2 5C11.64 5 12 5.3374 12 5.75L12 10.25C12 10.6626 11.64 11 11.2 11L4.80005 11C4.35999 11 4 10.6626 4 10.25L4 5.75ZM8.42395 8.12744L11.04 6.59375C11.14 6.53369 11.2 6.43262 11.2 6.32373C11.2 6.07251 10.908 5.92261 10.6801 6.05371L8 7.625L5.31995 6.05371C5.09204 5.92261 4.80005 6.07251 4.80005 6.32373C4.80005 6.43262 4.85999 6.53369 4.95996 6.59375L7.57605 8.12744C7.83606 8.28125 8.16394 8.28125 8.42395 8.12744Z" clip-rule="evenodd" fill="#9873FF" fill-opacity="1.000000" fill-rule="evenodd"/>
	</g>
</svg>
