<svg width="16.000000" height="16.000000" viewBox="0 0 16 16" fill="none" xmlns="http://www.w3.org/2000/svg" xmlns:xlink="http://www.w3.org/1999/xlink">
	<desc>
			Created with Pixso.
	</desc>
	<defs/>
	<path id="Subtract" d="M8 0C3.58167 0 0 3.58179 0 8C0 12.4182 3.58167 16 8 16C12.4183 16 16 12.4182 16 8C16 3.58179 12.4183 0 8 0ZM3 8C3 5.23999 5.23999 3 8 3C10.76 3 13 5.23999 13 8C13 10.76 10.76 13 8 13C5.23999 13 3 10.76 3 8ZM9.5 6C9.5 5.16992 8.82996 4.5 8 4.5C7.17004 4.5 6.5 5.16992 6.5 6C6.5 6.83008 7.17004 7.5 8 7.5C8.82996 7.5 9.5 6.83008 9.5 6ZM5 9.98999C5.64502 10.96 6.75 11.6001 8 11.6001C9.25 11.6001 10.355 10.96 11 9.98999C10.985 8.99512 8.995 8.44995 8 8.44995C7 8.44995 5.01501 8.99512 5 9.98999Z" clip-rule="evenodd" fill="#9873FF" fill-opacity="1.000000" fill-rule="evenodd"/>
</svg>
