<svg width="12.000000" height="12.000000" viewBox="0 0 12 12" fill="none" xmlns="http://www.w3.org/2000/svg" xmlns:xlink="http://www.w3.org/1999/xlink">
	<desc>
			Created with Pixso.
	</desc>
	<defs/>
	<path id="Vector" d="M6 0C2.68 0 0 2.68 0 6C0 9.31 2.68 12 6 12C9.31 12 12 9.31 12 6C12 2.68 9.31 0 6 0ZM6 10.8C3.35 10.8 1.19 8.64 1.19 6C1.19 3.35 3.35 1.2 6 1.2C8.64 1.2 10.8 3.35 10.8 6C10.8 8.64 8.64 10.8 6 10.8ZM8.15 3L6 5.15L3.84 3L3 3.84L5.15 6L3 8.15L3.84 9L6 6.84L8.15 9L9 8.15L6.84 6L9 3.84L8.15 3Z" fill="#B0B0B0" fill-opacity="1.000000" fill-rule="nonzero"/>
</svg>
