<svg width="50.000000" height="50.000000" viewBox="0 0 50 50" fill="none" xmlns="http://www.w3.org/2000/svg" xmlns:xlink="http://www.w3.org/1999/xlink">
	<desc>
			Created with Pixso.
	</desc>
	<defs/>
	<circle id="Ellipse 27" cx="25.000000" cy="25.000000" r="25.000000" fill="#9873FF" fill-opacity="1.000000"/>
	<path id="skb." d="M22.03 24.44L22.03 18.32L19.35 18.32L19.35 32L22.03 32L22.03 28.94L23.18 28.01L26.01 32L29.1 32L24.96 26.43L28.87 22.17L25.84 22.17L23.09 25.16Q22.77 25.51 22.48 25.89Q22.2 26.26 21.92 26.65L21.89 26.65Q21.94 26.1 21.99 25.54Q22.03 24.99 22.03 24.44ZM33.19 21.5L33.19 18.32L30.51 18.32L30.51 32L32.56 32L33.01 30.91L33.19 30.91Q33.58 31.4 34.2 31.78Q34.83 32.17 35.91 32.17Q36.76 32.17 37.45 31.84Q37.68 31.74 37.88 31.6Q38.74 31.02 39.21 29.88Q39.69 28.74 39.69 27.06Q39.69 24.57 38.66 23.28Q38.14 22.63 37.48 22.31Q36.81 21.98 35.98 21.98Q34.91 21.98 34.25 22.41Q33.58 22.83 33.19 23.44L33.19 23.44L33.09 23.44Q33.13 23.14 33.16 22.6Q33.19 22.05 33.19 21.5ZM16.8 30.74Q17.26 30.06 17.26 29.08Q17.26 28.21 16.92 27.66Q16.91 27.64 16.91 27.63Q16.57 27.1 15.97 26.73Q15.36 26.36 14.52 26.02Q13.66 25.67 13.22 25.44Q12.77 25.22 12.62 25.03Q12.54 24.94 12.5 24.83Q12.47 24.72 12.47 24.61Q12.47 24.46 12.53 24.35Q12.61 24.21 12.77 24.13Q13.06 23.97 13.65 23.97Q13.89 23.97 14.12 24Q14.55 24.04 14.97 24.17Q15.61 24.37 16.34 24.69L17.15 22.76Q16.27 22.35 15.44 22.17Q14.61 21.98 13.7 21.98Q11.92 21.98 10.86 22.67Q10.42 22.96 10.16 23.37Q9.8 23.93 9.8 24.73Q9.8 25.56 10.09 26.1Q10.37 26.64 10.97 27.04Q11.56 27.43 12.48 27.82Q13.44 28.22 13.89 28.48Q14.34 28.73 14.48 28.92Q14.53 29.01 14.57 29.1Q14.61 29.23 14.61 29.37Q14.61 29.52 14.56 29.65Q14.47 29.84 14.27 29.98Q13.93 30.21 13.15 30.21Q12.46 30.21 11.54 29.98Q10.62 29.75 9.82 29.38L9.82 31.6Q10.57 31.91 11.3 32.04Q12.04 32.17 13.06 32.17Q14.45 32.17 15.38 31.81Q16.28 31.47 16.75 30.83Q16.77 30.8 16.79 30.77Q16.8 30.76 16.8 30.74ZM34 24.42Q34.41 24.13 35.12 24.13Q35.51 24.13 35.83 24.29Q36.2 24.47 36.46 24.86Q36.95 25.59 36.95 27.03Q36.95 28.47 36.47 29.24Q36.17 29.69 35.76 29.88Q35.48 30 35.15 30Q34.34 30 33.89 29.59Q33.73 29.44 33.61 29.24Q33.19 28.48 33.19 27.05L33.19 26.76Q33.21 25.87 33.4 25.29Q33.57 24.75 33.95 24.46Q33.97 24.44 34 24.42ZM41.9 29.64Q41.52 29.99 41.52 30.74Q41.52 31.43 41.87 31.78Q41.92 31.84 41.98 31.88Q42.08 31.96 42.2 32.03Q42.58 32.23 43.07 32.23Q43.51 32.23 43.86 32.06Q44.01 31.99 44.15 31.88Q44.2 31.84 44.25 31.78Q44.6 31.43 44.6 30.74Q44.6 29.99 44.23 29.64Q44.19 29.61 44.15 29.58Q44.04 29.5 43.92 29.44Q43.54 29.24 43.07 29.24Q42.54 29.24 42.14 29.47Q42.06 29.52 41.98 29.58Q41.94 29.61 41.9 29.64Z" fill="#FFFFFF" fill-opacity="1.000000" fill-rule="evenodd"/>
</svg>
